# xmcd
#
# Track frame offsets:
# 150
# 25335
# 39495
# 56638
# 67890
# 143060
# 165240
#
# Disc length: 2389 seconds
#
# Revision: 0
# Processed by: cddbd v1.4PL0 Copyright (c) Steve Scherf et al.
# Submitted via: Audion 3.0.2 (http://www.panic.com/audion/)
#
DISCID=53095307
DTITLE=Phish - Live Phish #12
DYEAR=1900
DGENRE=
TTITLE0=Waste
TTITLE1=Train Song
TTITLE2=Strange Design
TTITLE3=Sweet Adeline
TTITLE4=David Bowie
TTITLE5=Sleeping Monkey
TTITLE6=Rocky Top
EXTD=
EXTT0=
EXTT1=
EXTT2=
EXTT3=
EXTT4=
EXTT5=
EXTT6=
PLAYORDER=
